<svg xmlns="http://www.w3.org/2000/svg" viewBox="0 0 2300 1700" width="2300" height="1700" xmlns:c2pa="http://c2pa.org/manifest"><metadata><c2pa:manifest>AAAWgmp1bWIAAAAeanVtZGMycGEAEQAQgAAAqgA4m3EDYzJwYQAAABZcanVtYgAAAEdqdW1kYzJtYQARABCAAACqADibcQN1cm46YzJwYTpmNjg3NTgwMS03NDc4LTRiMWEtYTdjMS01NWE4MTRiZDI0MTgAAAADl2p1bWIAAAApanVtZGMyYXMAEQAQgAAAqgA4m3EDYzJwYS5hc3NlcnRpb25zAAAAALxqdW1iAAAARGp1bWRjYm9yABEAEIAAAKoAOJtxE2MycGEuaW5ncmVkaWVudC52MwAAAAAYYzJzaAxSVEkwGSyGLHfNhBiXLiIAAABwY2JvcqNpZGM6Zm9ybWF0bWltYWdlL3N2Zyt4bWxqaW5zdGFuY2VJRHgseG1wOmlpZDo2NDIxMzU5Yy0yNzQ5LTRiYTEtYWU4Ni03NTg1MTY3YmJhNjRscmVsYXRpb25zaGlwaHBhcmVudE9mAAAB4mp1bWIAAABBanVtZGNib3IAEQAQgAAAqgA4m3ETYzJwYS5hY3Rpb25zLnYyAAAAABhjMnNoCZ5HmUH02Y53nvKC7MMhfQAAAZljYm9yomdhY3Rpb25zgqJmYWN0aW9ua2MycGEub3BlbmVkanBhcmFtZXRlcnOha2luZ3JlZGllbnRzgaJjdXJseC1zZWxmI2p1bWJmPWMycGEuYXNzZXJ0aW9ucy9jMnBhLmluZ3JlZGllbnQudjNkaGFzaFggxxe9XQcX05yqLZw5fJJkLDsjqgWs8fOYpQIVIAZkS0+kZmFjdGlvbngdY29tLmFudGhyb3BpYy5jbGF1ZGUucHJvdmlkZWRqcGFyYW1ldGVyc6F4H2NvbS5hbnRocm9waWMub3JpZ2luLWNvbmZpZGVuY2VndW5rbm93bmtkZXNjcmlwdGlvbnhmQ2xhdWRlIHByb3ZpZGVkIHRoaXMgZmlsZSBhdCB0aGUgcmVxdWVzdCBvZiBhIHVzZXIgYW5kIG1heSBoYXZlIGNyZWF0ZWQgb3IgbW9kaWZpZWQgdGhlIGZpbGUgY29udGVudHMubXNvZnR3YXJlQWdlbnShZG5hbWVmQ2xhdWRlcmFsbEFjdGlvbnNJbmNsdWRlZPUAAADIanVtYgAAAEBqdW1kY2JvcgARABCAAACqADibcRNjMnBhLmhhc2guZGF0YQAAAAAYYzJzaC2Bbtr0/wVX2MyIMoN7gSgAAACAY2JvcqVjYWxnZnNoYTI1NmNwYWRNAAAAAAAAAAAAAAAAAGRoYXNoWCBxejzM/feUH20V0lNtSe4ZMJkAlEtA9kwyI6uUkCuIAWRuYW1lbmp1bWJmIG1hbmlmZXN0amV4Y2x1c2lvbnOBomVzdGFydBiaZmxlbmd0aBkeBAAAAj5qdW1iAAAAJ2p1bWRjMmNsABEAEIAAAKoAOJtxA2MycGEuY2xhaW0udjIAAAACD2Nib3KlY2FsZ2ZzaGEyNTZpc2lnbmF0dXJleE1zZWxmI2p1bWJmPS9jMnBhL3VybjpjMnBhOmY2ODc1ODAxLTc0NzgtNGIxYS1hN2MxLTU1YTgxNGJkMjQxOC9jMnBhLnNpZ25hdHVyZWppbnN0YW5jZUlEeCx4bXA6aWlkOmE1N2EyOWRhLTEwMDgtNDczMy05YzA4LWFjZWMxMzJhMTBmNHJjcmVhdGVkX2Fzc2VydGlvbnODomN1cmx4LXNlbGYjanVtYmY9YzJwYS5hc3NlcnRpb25zL2MycGEuaW5ncmVkaWVudC52M2RoYXNoWCDHF71dBxfTnKotnDl8kmQsOyOqBazx85ilAhUgBmRLT6JjdXJseCpzZWxmI2p1bWJmPWMycGEuYXNzZXJ0aW9ucy9jMnBhLmFjdGlvbnMudjJkaGFzaFgg5vLEVXfFctfMtqxGKchpdkppOf0JGU3VLWbZvuQ8k5OiY3VybHgpc2VsZiNqdW1iZj1jMnBhLmFzc2VydGlvbnMvYzJwYS5oYXNoLmRhdGFkaGFzaFggYbOw1Tr6MfCwv3LPRSFMsoXRqotgHjZPuJdNvJXr4wR0Y2xhaW1fZ2VuZXJhdG9yX2luZm+jZG5hbWVvQW50aHJvcGljIEZpbGVzZ3ZlcnNpb25lMS4wLjBrc3BlY1ZlcnNpb25lMi40LjAAABA4anVtYgAAAChqdW1kYzJjcwARABCAAACqADibcQNjMnBhLnNpZ25hdHVyZQAAABAIY2JvctKEWQISogEmGCFZAgowggIGMIIBjaADAgECAhRA5aAK7sI50L64g/oGQgU9Z1UTADAKBggqhkjOPQQDAzBJMRcwFQYDVQQKEw5BbnRocm9waWMsIFBCQzEuMCwGA1UEAxMlQW50aHJvcGljIENvbnRlbnQgQ3JlZGVudGlhbHMgUm9vdCBDQTAeFw0yNjA4MDcxODQzNTZaFw0yODA4MDYxOTQzNTZaMEQxFzAVBgNVBAoTDkFudGhyb3BpYywgUEJDMSkwJwYDVQQDEyBBbnRocm9waWMgQ2xhdWRlIENvbnRlbnQgU2lnbmluZzBZMBMGByqGSM49AgEGCCqGSM49AwEHA0IABJh6CmvLUBgFFNU0vUKlOVtE6djd17L5SuwX0LemFisBM3dkd/3cyjxFA3Qo5S46fX0/ihY0VZ7mfb9KF703t5OjWDBWMA4GA1UdDwEB/wQEAwIHgDAVBgNVHSUEDjAMBgorBgEEAYPoXgIBMAwGA1UdEwEB/wQCMAAwHwYDVR0jBBgwFoAUzlHiBIFOZFsj+OPEz5o+nMHXXMIwCgYIKoZIzj0EAwMDZwAwZAIwMXMdFJ4BetLLVY7ORuE9noqbbAZOZn/aArXyTwFAZfKrPzxF2vPoJNf1+UCdg1XGAjBwX1zd9WGqYkqmL5SFqw1QySjr1zJfpJM9+1rdDwSPLMOPOjKuiXjoU/pUUeG9RwmhY3BhZFkNngAAAAAAAAAAAAAAAAAAAAAAAAAAAAAAAAAAAAAAAAAAAAAAAAAAAAAAAAAAAAAAAAAAAAAAAAAAAAAAAAAAAAAAAAAAAAAAAAAAAAAAAAAAAAAAAAAAAAAAAAAAAAAAAAAAAAAAAAAAAAAAAAAAAAAAAAAAAAAAAAAAAAAAAAAAAAAAAAAAAAAAAAAAAAAAAAAAAAAAAAAAAAAAAAAAAAAAAAAAAAAAAAAAAAAAAAAAAAAAAAAAAAAAAAAAAAAAAAAAAAAAAAAAAAAAAAAAAAAAAAAAAAAAAAAAAAAAAAAAAAAAAAAAAAAAAAAAAAAAAAAAAAAAAAAAAAAAAAAAAAAAAAAAAAAAAAAAAAAAAAAAAAAAAAAAAAAAAAAAAAAAAAAAAAAAAAAAAAAAAAAAAAAAAAAAAAAAAAAAAAAAAAAAAAAAAAAAAAAAAAAAAAAAAAAAAAAAAAAAAAAAAAAAAAAAAAAAAAAAAAAAAAAAAAAAAAAAAAAAAAAAAAAAAAAAAAAAAAAAAAAAAAAAAAAAAAAAAAAAAAAAAAAAAAAAAAAAAAAAAAAAAAAAAAAAAAAAAAAAAAAAAAAAAAAAAAAAAAAAAAAAAAAAAAAAAAAAAAAAAAAAAAAAAAAAAAAAAAAAAAAAAAAAAAAAAAAAAAAAAAAAAAAAAAAAAAAAAAAAAAAAAAAAAAAAAAAAAAAAAAAAAAAAAAAAAAAAAAAAAAAAAAAAAAAAAAAAAAAAAAAAAAAAAAAAAAAAAAAAAAAAAAAAAAAAAAAAAAAAAAAAAAAAAAAAAAAAAAAAAAAAAAAAAAAAAAAAAAAAAAAAAAAAAAAAAAAAAAAAAAAAAAAAAAAAAAAAAAAAAAAAAAAAAAAAAAAAAAAAAAAAAAAAAAAAAAAAAAAAAAAAAAAAAAAAAAAAAAAAAAAAAAAAAAAAAAAAAAAAAAAAAAAAAAAAAAAAAAAAAAAAAAAAAAAAAAAAAAAAAAAAAAAAAAAAAAAAAAAAAAAAAAAAAAAAAAAAAAAAAAAAAAAAAAAAAAAAAAAAAAAAAAAAAAAAAAAAAAAAAAAAAAAAAAAAAAAAAAAAAAAAAAAAAAAAAAAAAAAAAAAAAAAAAAAAAAAAAAAAAAAAAAAAAAAAAAAAAAAAAAAAAAAAAAAAAAAAAAAAAAAAAAAAAAAAAAAAAAAAAAAAAAAAAAAAAAAAAAAAAAAAAAAAAAAAAAAAAAAAAAAAAAAAAAAAAAAAAAAAAAAAAAAAAAAAAAAAAAAAAAAAAAAAAAAAAAAAAAAAAAAAAAAAAAAAAAAAAAAAAAAAAAAAAAAAAAAAAAAAAAAAAAAAAAAAAAAAAAAAAAAAAAAAAAAAAAAAAAAAAAAAAAAAAAAAAAAAAAAAAAAAAAAAAAAAAAAAAAAAAAAAAAAAAAAAAAAAAAAAAAAAAAAAAAAAAAAAAAAAAAAAAAAAAAAAAAAAAAAAAAAAAAAAAAAAAAAAAAAAAAAAAAAAAAAAAAAAAAAAAAAAAAAAAAAAAAAAAAAAAAAAAAAAAAAAAAAAAAAAAAAAAAAAAAAAAAAAAAAAAAAAAAAAAAAAAAAAAAAAAAAAAAAAAAAAAAAAAAAAAAAAAAAAAAAAAAAAAAAAAAAAAAAAAAAAAAAAAAAAAAAAAAAAAAAAAAAAAAAAAAAAAAAAAAAAAAAAAAAAAAAAAAAAAAAAAAAAAAAAAAAAAAAAAAAAAAAAAAAAAAAAAAAAAAAAAAAAAAAAAAAAAAAAAAAAAAAAAAAAAAAAAAAAAAAAAAAAAAAAAAAAAAAAAAAAAAAAAAAAAAAAAAAAAAAAAAAAAAAAAAAAAAAAAAAAAAAAAAAAAAAAAAAAAAAAAAAAAAAAAAAAAAAAAAAAAAAAAAAAAAAAAAAAAAAAAAAAAAAAAAAAAAAAAAAAAAAAAAAAAAAAAAAAAAAAAAAAAAAAAAAAAAAAAAAAAAAAAAAAAAAAAAAAAAAAAAAAAAAAAAAAAAAAAAAAAAAAAAAAAAAAAAAAAAAAAAAAAAAAAAAAAAAAAAAAAAAAAAAAAAAAAAAAAAAAAAAAAAAAAAAAAAAAAAAAAAAAAAAAAAAAAAAAAAAAAAAAAAAAAAAAAAAAAAAAAAAAAAAAAAAAAAAAAAAAAAAAAAAAAAAAAAAAAAAAAAAAAAAAAAAAAAAAAAAAAAAAAAAAAAAAAAAAAAAAAAAAAAAAAAAAAAAAAAAAAAAAAAAAAAAAAAAAAAAAAAAAAAAAAAAAAAAAAAAAAAAAAAAAAAAAAAAAAAAAAAAAAAAAAAAAAAAAAAAAAAAAAAAAAAAAAAAAAAAAAAAAAAAAAAAAAAAAAAAAAAAAAAAAAAAAAAAAAAAAAAAAAAAAAAAAAAAAAAAAAAAAAAAAAAAAAAAAAAAAAAAAAAAAAAAAAAAAAAAAAAAAAAAAAAAAAAAAAAAAAAAAAAAAAAAAAAAAAAAAAAAAAAAAAAAAAAAAAAAAAAAAAAAAAAAAAAAAAAAAAAAAAAAAAAAAAAAAAAAAAAAAAAAAAAAAAAAAAAAAAAAAAAAAAAAAAAAAAAAAAAAAAAAAAAAAAAAAAAAAAAAAAAAAAAAAAAAAAAAAAAAAAAAAAAAAAAAAAAAAAAAAAAAAAAAAAAAAAAAAAAAAAAAAAAAAAAAAAAAAAAAAAAAAAAAAAAAAAAAAAAAAAAAAAAAAAAAAAAAAAAAAAAAAAAAAAAAAAAAAAAAAAAAAAAAAAAAAAAAAAAAAAAAAAAAAAAAAAAAAAAAAAAAAAAAAAAAAAAAAAAAAAAAAAAAAAAAAAAAAAAAAAAAAAAAAAAAAAAAAAAAAAAAAAAAAAAAAAAAAAAAAAAAAAAAAAAAAAAAAAAAAAAAAAAAAAAAAAAAAAAAAAAAAAAAAAAAAAAAAAAAAAAAAAAAAAAAAAAAAAAAAAAAAAAAAAAAAAAAAAAAAAAAAAAAAAAAAAAAAAAAAAAAAAAAAAAAAAAAAAAAAAAAAAAAAAAAAAAAAAAAAAAAAAAAAAAAAAAAAAAAAAAAAAAAAAAAAAAAAAAAAAAAAAAAAAAAAAAAAAAAAAAAAAAAAAAAAAAAAAAAAAAAAAAAAAAAAAAAAAAAAAAAAAAAAAAAAAAAAAAAAAAAAAAAAAAAAAAAAAAAAAAAAAAAAAAAAAAAAAAAAAAAAAAAAAAAAAAAAAAAAAAAAAAAAAAAAAAAAAAAAAAAAAAAAAAAAAAAAAAAAAAAAAAAAAAAAAAAAAAAAAAAAAAAAAAAAAAAAAAAAAAAAAAAAAAAAAAAAAAAAAAAAAAAAAAAAAAAAAAAAAAAAAAAAAAAAAAAAAAAAAAAAAAAAAAAAAAAAAAAAAAAAAAAAAAAAAAAAAAAAAAAAAAAAAAAAAAAAAAAAAAAAAAAAAAAAAAAAAAAAAAAAAAAAAAAAAAAAAAAAAAAAAAAAAAAAAAAAAAAAAAAAAAAAAAAAAAAAAAAAAAAAAAAAAAAAAAAAAAAAAAAAAAAAAAAAAAAAAAAAAAAAAAAAAAAAAAAAAAAAAAAAAAAAAAAAAAAAAAAAAAAAAAAAAAAAAAAAAAAAAAAAAAAAAAAAAAAAAAAAAAAAAAAAAAAAAAAAAAAAAAAAAAAAAAAAAAAAAAAAAAAAAAAAAAAAAAAAAAAAAAAAAAAAAAAAAAAAAAAAAAAAAAAAAAAAAAAAAAAAAAAAAAAAAAAAAAAAAAAAAAAAAAAAAAAAAAAAAAAAAAAAAAAAAAAAAAAAAAAAAAAAAAAAAAAAAAAAAAAAAAAAAAAAAAAAAAAAAAAAAAAAAAAAAAAAAAAAAAAAAAAAAAAAAAAAAAAAAAAAAAAAAAAAAAAAAAAAAAAAAAAAAAAAAAAAAAAAAAAAAAAAAAAAAAAAAAAAAAAAAAAAAAAAAAAAAAAAAAAAAAAAAAAAAAAAAAAAAAAAAAAAAAAAAAAAAAAAAAAAAAAAAAAAAAAAAAAAAAAAAAAAAAAAAAAAAAAAAAAAAAAAAAAAAAAAAAAAAAAAAAAAAAAAAAAAAAAAAAAAAAAAAAAAAAAAAAAAAAAAAAAAAAAAAAAAAAAAAAAAAAAAAAAAAAAAAAAAAAAAAAAAAAAAAAAAAAAAAAAAAAAAAAAAAAAAAAAAAAAAAAAAAAAAAAAAAAAAAAAAAAAAAAAAAAAAAAAAAAAAAAAAAAAAAAAAAAAAAAAAAAAAAAAAAAAAAAAAAAAAAAAAAAAAAAAAAAAAAAAAAAAAAAAAAAAAAAAAAAAAAAAAAAAAAAAAAAAAAAAAAAAAAAAAAAAAAAAAAAAAAAAAAAAAAAAAAAAAAAAAAAAAAAAAAAAAAAAAAAAAAAAAAAAAAAAAAAAAAAAAAAAAAAAAAAAAAAAAAAAAAAAAAAAAAAAAAAAAAAAAAAAAAAAAAAAAAAAAAAAAAAAAAAAAAAAAAAAAAAAAAAAAAAAAAAAAAAAAAAAAAAAAAAAAAAAAAAAAAAAAAAAAAAAAAAAAAAAAAAAAAAAAAAAAAAAAAAAAAAAAAAAAAAAAAAAAAAAAAAAAAAAAAAAAAAAAAAAAAAAAAAAAAAAAAAAAAAAAAAAAAAAAAAAAAAAAAAAAAAAAAAAAAAAAAAAAAAAAAAAAAAAAAAAAAAAAAAAAAAAAAAAAAAAAAAAAAAAAAAAAAAAAAAAAAAAAAPZYQHJ9FOjJQ8A9+osyiuE3ew0Ux5bBNK48ERoo4XYZiO/HmOiRDvDA2kQvXJKyJICdDl3MVr6tweWuoyLAVuinjJc=</c2pa:manifest></metadata>
  <!-- Background -->
  <rect id="background" x="0" y="0" width="2300" height="1700" fill="#f4f5f7"/>

  <!-- Walkable areas -->
  <g id="corridors" fill="#e6e9ed" stroke="none">
    <rect id="corridor_top" x="190" y="340" width="1280" height="65"/>
    <rect id="corridor_bottom" x="210" y="1162" width="1260" height="78"/>
    <rect id="corridor_faculty" x="320" y="420" width="58" height="745"/>
    <rect id="corridor_right" x="1380" y="405" width="90" height="835"/>
    <rect id="stair_hall_west" x="205" y="720" width="115" height="145"/>
    <rect id="amphitheater_area" x="378" y="720" width="110" height="145"/>
    <rect id="corridor_east_upper" x="1467" y="655" width="190" height="70"/>
    <rect id="corridor_east_lower" x="1467" y="865" width="190" height="72"/>
  </g>

  <!-- Central open atrium (simplified) -->
  <g id="open-area">
    <rect id="open_area_open_area" x="480" y="405" width="902" height="770" fill="#d3dbe3" stroke="#3b4048" stroke-width="5"/>
    <rect id="open_area_inner_edge" x="502" y="425" width="858" height="730" fill="none" stroke="#9aa3ad" stroke-width="2"/>
    <path id="open_area_west_arc" d="M488 720 Q570 792 488 865" stroke="#9aa3ad" stroke-width="2" fill="none"/>
  </g>

  <!-- Rooms -->
  <g id="rooms" fill="#cfd8e3" stroke="#3b4048" stroke-width="5" stroke-linejoin="miter">
    <!-- Top section -->
    <rect id="room_204" x="190" y="150" width="100" height="190" fill="#e4e1d8"/>
    <rect id="room_203" x="290" y="150" width="372" height="190" fill="#f3cfe0"/>
    <rect id="room_202" x="662" y="155" width="371" height="185" fill="#f3cfe0"/>
    <rect id="room_201" x="1033" y="155" width="347" height="185" fill="#f3cfe0"/>

    <!-- Left section, west column -->
    <rect id="room_205" x="205" y="420" width="115" height="75" fill="#cbc9b0"/>
    <rect id="room_206" x="205" y="495" width="115" height="77" fill="#c4e3bf"/>
    <rect id="room_207" x="205" y="572" width="115" height="76" fill="#c4e3bf"/>
    <rect id="room_208" x="205" y="648" width="115" height="72" fill="#c4e3bf"/>
    <rect id="room_212" x="210" y="865" width="115" height="150" fill="#c4e3bf"/>
    <rect id="room_213" x="210" y="1015" width="115" height="77" fill="#c4e3bf"/>
    <rect id="room_214" x="210" y="1092" width="120" height="70" fill="#c3c1ae"/>

    <!-- Left section, east column -->
    <rect id="room_211" x="378" y="420" width="107" height="75" fill="#c4e3bf"/>
    <rect id="room_210" x="378" y="495" width="107" height="77" fill="#c4e3bf"/>
    <rect id="room_209" x="378" y="572" width="107" height="148" fill="#c4e3bf"/>
    <rect id="room_216" x="383" y="865" width="105" height="150" fill="#c4e3bf"/>
    <rect id="room_215" x="383" y="1015" width="105" height="147" fill="#c4e3bf"/>

    <!-- Bottom section -->
    <rect id="room_217" x="213" y="1243" width="100" height="177" fill="#e8c28f"/>
    <rect id="room_218" x="313" y="1240" width="270" height="180" fill="#e3ec8f"/>
    <rect id="room_219" x="583" y="1237" width="277" height="183" fill="#e3ec8f"/>
    <rect id="room_220" x="860" y="1232" width="265" height="187" fill="#e3ec8f"/>
    <rect id="room_221" x="1125" y="1228" width="255" height="190" fill="#e3ec8f"/>

    <!-- Right extension -->
    <rect id="room_office" x="1470" y="360" width="192" height="70" fill="#7fc26f"/>
    <rect id="room_226" x="1467" y="432" width="190" height="223" fill="#6fb85f"/>
    <rect id="room_washroom_north" x="1660" y="432" width="165" height="73" fill="#e3c98f"/>
    <rect id="room_225" x="1658" y="510" width="237" height="285" fill="#8fdcc0"/>
    <rect id="room_224" x="1655" y="797" width="238" height="276" fill="#b79ad6"/>
    <rect id="room_washroom_se" x="1660" y="1073" width="158" height="67" fill="#e3c98f"/>
    <rect id="room_223" x="1465" y="937" width="187" height="203" fill="#a9b0dc"/>
    <rect id="room_222" x="1467" y="1142" width="138" height="68" fill="#e6e3ee"/>
    <rect id="room_washroom_south" x="1605" y="1142" width="47" height="68" fill="#e3c98f"/>
  </g>

  <!-- East void (open to below) -->
  <g id="void_east">
    <rect x="1467" y="725" width="190" height="140" fill="#d3dbe3" stroke="#3b4048" stroke-width="4"/>
  </g>

  <!-- Structural walls -->
  <g id="walls" fill="none" stroke="#3b4048" stroke-width="6" stroke-linecap="square">
    <path d="M188 148 H1470 V340"/>
    <path d="M188 148 V420"/>
    <path d="M190 340 V420"/>
    <path d="M205 420 V1162"/>
    <path d="M488 405 V425"/>
    <path d="M205 1162 H1470"/>
    <path d="M213 1243 V1420 H1470 V1228"/>
    <path d="M1470 340 V360 M1470 1228 V1240 H1467 V1210"/>
    <path d="M1380 340 H1470 M1380 1228 H1470"/>
    <path d="M1467 430 V1140"/>
  </g>

  <!-- Doors / openings -->
  <g id="doors" stroke="#e6e9ed" stroke-width="9" stroke-linecap="butt" fill="none">
    <path d="M320 340 H365 M690 340 H735 M1050 340 H1095 M220 340 H265"/>
    <path d="M340 1240 H385 M610 1240 H655 M890 1240 H935 M1150 1240 H1195 M230 1240 H275"/>
    <path d="M320 440 V480 M320 510 V555 M320 585 V630 M320 655 V705 M325 890 V940 M325 1030 V1075"/>
    <path d="M378 440 V480 M378 510 V555 M378 600 V680 M383 890 V940 M383 1040 V1130"/>
    <path d="M1467 440 V470 M1467 580 V620 M1467 960 V1110 M1467 1150 V1195"/>
    <path d="M1658 560 V740 M1655 850 V1020 M1652 960 V1100"/>
  </g>

  <!-- Pillars -->
  <g id="pillars" fill="#3b4048">
    <circle cx="480" cy="402" r="6"/><circle cx="572" cy="402" r="6"/><circle cx="668" cy="402" r="6"/><circle cx="762" cy="402" r="6"/><circle cx="855" cy="402" r="6"/><circle cx="946" cy="402" r="6"/><circle cx="1037" cy="402" r="6"/><circle cx="1124" cy="402" r="6"/><circle cx="1211" cy="402" r="6"/><circle cx="1295" cy="402" r="6"/><circle cx="1381" cy="405" r="6"/>
    <circle cx="490" cy="1180" r="6"/><circle cx="583" cy="1180" r="6"/><circle cx="677" cy="1180" r="6"/><circle cx="770" cy="1180" r="6"/><circle cx="860" cy="1180" r="6"/><circle cx="950" cy="1180" r="6"/><circle cx="1040" cy="1180" r="6"/><circle cx="1128" cy="1180" r="6"/><circle cx="1212" cy="1180" r="6"/><circle cx="1295" cy="1180" r="6"/><circle cx="1381" cy="1168" r="6"/>
    <circle cx="1385" cy="520" r="5"/><circle cx="1385" cy="660" r="5"/><circle cx="1385" cy="800" r="5"/><circle cx="1385" cy="935" r="5"/><circle cx="1385" cy="1030" r="5"/>
  </g>

  <!-- Stairs -->
  <g id="stairs">
    <rect id="stairs_top_right" x="1383" y="158" width="85" height="180" fill="#d4d8de" stroke="#3b4048" stroke-width="3"/>
    <rect id="stairs_bottom_right" x="1383" y="1232" width="85" height="185" fill="#d4d8de" stroke="#3b4048" stroke-width="3"/>
    <rect id="stairs_west_hall" x="208" y="725" width="110" height="138" fill="#d4d8de" stroke="#3b4048" stroke-width="3"/>
    <g stroke="#6b737d" stroke-width="2" fill="none">
      <path d="M1395 215H1458M1395 230H1458M1395 245H1458M1395 260H1458M1395 275H1458M1395 290H1458M1395 305H1458"/>
      <path d="M1395 1290H1458M1395 1305H1458M1395 1320H1458M1395 1335H1458M1395 1350H1458M1395 1365H1458M1395 1380H1458"/>
      <path d="M215 765H255M215 780H255M215 800H255M215 815H255"/>
      <path d="M257 765 H315 V820 H257 Z" stroke="#3b4048" stroke-width="4"/>
    </g>
  </g>

  <!-- Entrances and terraces -->
  <g id="entrances">
    <rect id="terrace_northeast" x="1895" y="508" width="90" height="147" fill="#e6e9ed" stroke="#3b4048" stroke-width="4"/>
    <rect id="terrace_southeast" x="1890" y="930" width="95" height="145" fill="#e6e9ed" stroke="#3b4048" stroke-width="4"/>
    <rect id="entrance_east_lobby" x="1895" y="655" width="105" height="275" fill="#dfe3e8" stroke="#3b4048" stroke-width="4"/>
    <path id="entrance_east_arc" d="M1960 690 Q2030 792 1960 895" fill="none" stroke="#9aa3ad" stroke-width="2"/>
    <path id="entrance_east_opening" d="M1895 700 V890" stroke="#dfe3e8" stroke-width="9"/>
    <path id="atrium_west_opening" d="M488 735 V850" stroke="#dfe3e8" stroke-width="9"/>
  </g>
</svg>
